<?xml version="1.0" standalone="no"?>
<!DOCTYPE svg PUBLIC "-//W3C//DTD SVG 20010904//EN"
 "http://www.w3.org/TR/2001/REC-SVG-20010904/DTD/svg10.dtd">
<svg version="1.0" xmlns="http://www.w3.org/2000/svg"
 width="225.000000pt" height="225.000000pt" viewBox="0 0 225.000000 225.000000"
 preserveAspectRatio="xMidYMid meet">
<metadata>
Created by potrace 1.16, written by Peter Selinger 2001-2019
</metadata>
<g transform="translate(0.000000,225.000000) scale(0.100000,-0.100000)"
fill="#000000" stroke="none">
<path d="M1715 1560 c3 -5 2 -10 -3 -10 -5 0 -8 -20 -7 -46 1 -42 -14 -73 -23
-46 -3 9 -9 9 -23 2 -11 -6 -62 -9 -117 -7 l-97 3 103 2 c60 1 102 6 102 12 0
6 -7 10 -15 10 -8 0 -15 6 -15 13 0 7 -3 8 -8 2 -4 -5 -47 -10 -97 -10 -106 1
-128 -3 -119 -17 5 -7 0 -9 -14 -6 -16 5 -22 1 -24 -16 -2 -11 -9 -20 -16 -18
-9 2 -11 -4 -7 -18 4 -11 2 -20 -4 -20 -7 0 -11 -45 -11 -130 l0 -130 151 0
151 0 -6 -23 c-3 -13 -12 -68 -21 -123 -8 -54 -18 -116 -21 -136 l-7 -38 -123
0 -124 0 0 -396 0 -396 38 6 c66 12 186 55 266 96 414 212 656 644 616 1100
-9 107 -49 268 -61 248 -5 -7 -3 -16 4 -20 9 -6 9 -8 0 -8 -6 0 -14 -12 -16
-27 l-4 -28 -2 28 c0 15 -14 41 -31 58 -25 27 -29 28 -25 10 6 -30 -15 -33
-201 -29 l-159 3 -1 35 c0 43 -12 80 -25 80 -6 0 -7 -4 -4 -10z"/>
<path d="M90 1555 c0 -2 -9 -27 -20 -55 -11 -28 -16 -49 -11 -46 5 3 11 -3 14
-14 3 -11 2 -19 -2 -18 -21 2 -32 -4 -28 -16 3 -7 1 -18 -4 -23 -20 -20 -38
-247 -28 -358 5 -59 12 -111 15 -116 3 -6 7 -25 10 -44 6 -48 50 -166 95 -256
141 -282 432 -508 752 -584 l57 -13 0 399 0 399 -140 0 -140 0 0 160 0 160
141 0 141 0 -5 190 c-4 178 -5 192 -25 210 -24 23 -52 26 -52 8 0 -10 -2 -10
-9 0 -7 11 -9 11 -14 -2 -4 -9 -13 -16 -21 -16 -8 0 -17 -10 -19 -22 -3 -14
-5 -9 -6 15 l-1 37 -315 0 c-215 0 -315 -3 -315 -11 0 -5 -4 -8 -8 -5 -5 3 -8
-15 -8 -39 1 -32 -3 -45 -13 -45 -11 0 -13 12 -8 55 6 59 2 65 -19 38 -13 -17
-14 -17 -8 0 3 9 3 17 0 17 -3 0 -6 -2 -6 -5z"/>
<path d="M1770 1505 l0 -45 154 0 155 0 14 30 c13 26 13 31 -1 42 -10 8 -13 9
-9 1 4 -6 3 -14 -3 -18 -5 -3 -10 3 -10 14 0 20 -5 21 -150 21 l-150 0 0 -45z"/>
</g>
</svg>
