<?xml version="1.0" standalone="no"?>
<!DOCTYPE svg PUBLIC "-//W3C//DTD SVG 20010904//EN"
 "http://www.w3.org/TR/2001/REC-SVG-20010904/DTD/svg10.dtd">
<svg version="1.0" xmlns="http://www.w3.org/2000/svg"
 width="1024.000000pt" height="780.000000pt" viewBox="0 0 1024.000000 780.000000"
 preserveAspectRatio="xMidYMid meet">
<metadata>
Created by potrace 1.16, written by Peter Selinger 2001-2019
</metadata>
<g transform="translate(0.000000,780.000000) scale(0.100000,-0.100000)"
fill="#000000" stroke="none">
<path d="M3047 6455 c-1 -2 -45 -5 -99 -9 -302 -20 -610 -124 -852 -289 -113
-77 -281 -243 -365 -362 -63 -90 -175 -307 -206 -400 -16 -50 -23 -271 -10
-383 2 -26 12 -124 21 -218 l17 -170 41 -15 41 -14 7 -90 c4 -49 14 -189 23
-310 23 -323 22 -315 56 -315 18 0 30 6 33 18 9 28 43 217 66 362 11 74 25
160 31 190 23 131 22 220 -5 405 l-27 179 36 73 c20 41 60 99 90 131 50 54 55
57 96 55 24 -1 141 -29 259 -63 503 -142 645 -170 878 -170 227 0 397 32 829
156 273 78 319 87 355 68 36 -19 101 -101 139 -177 37 -73 38 -115 9 -268 -18
-93 -21 -135 -17 -229 3 -63 8 -124 10 -135 3 -11 17 -99 32 -195 14 -96 36
-224 48 -285 21 -106 23 -110 49 -113 22 -3 28 2 32 20 6 22 23 238 47 568 12
178 17 190 70 190 25 0 27 3 33 63 44 438 47 583 15 680 -77 231 -250 490
-433 649 -271 234 -601 364 -1016 398 -110 9 -323 12 -333 5z"/>
<path d="M7058 6369 c-10 -5 -22 -18 -28 -28 -11 -21 -220 -954 -220 -983 0
-10 -4 -18 -8 -18 -5 0 -17 38 -27 85 -15 71 -23 90 -48 111 -22 18 -37 24
-55 19 -36 -9 -55 -38 -92 -137 -18 -48 -36 -88 -39 -88 -3 0 -15 7 -25 15
-17 13 -75 15 -352 15 l-333 0 -27 -23 c-36 -31 -38 -81 -3 -105 21 -15 62
-18 327 -22 l303 -5 29 -65 c31 -71 51 -90 90 -90 35 0 63 32 87 100 11 30 24
55 29 57 5 2 21 -52 37 -119 31 -137 50 -168 103 -168 39 0 69 32 79 87 3 21
36 171 72 333 36 162 70 315 75 340 22 106 19 138 93 -925 19 -286 40 -532 46
-547 12 -30 58 -53 89 -43 34 11 46 40 99 240 28 105 76 282 106 395 30 113
67 251 82 308 l28 102 388 0 c255 0 395 4 408 11 48 25 44 105 -7 128 -17 8
-155 11 -448 11 -408 0 -423 -1 -444 -20 -24 -23 -36 -62 -123 -392 -34 -131
-64 -236 -67 -233 -3 2 -8 60 -13 127 -36 541 -61 911 -73 1068 -8 102 -18
235 -22 295 -3 61 -11 119 -17 130 -22 42 -62 56 -99 34z"/>
<path d="M2238 4518 c-157 -9 -260 -27 -266 -45 -3 -10 14 -13 60 -15 35 0 74
-2 88 -4 14 -1 56 -4 95 -7 38 -3 99 -11 135 -17 36 -5 137 -22 225 -36 88
-14 208 -36 267 -50 59 -13 113 -24 120 -24 23 1 -89 95 -164 138 -130 73
-212 82 -560 60z"/>
<path d="M3723 4520 c-48 -10 -144 -56 -206 -98 -44 -31 -109 -93 -103 -99 1
-2 54 8 117 21 234 51 550 97 772 112 145 10 125 34 -44 53 -132 15 -486 22
-536 11z"/>
<path d="M2330 4272 c-30 -10 -70 -26 -87 -35 -41 -22 -103 -76 -103 -90 0 -6
12 1 28 15 75 72 246 120 359 101 83 -15 214 -78 278 -134 46 -41 48 -41 26
-11 -27 39 -120 104 -199 139 -78 35 -221 42 -302 15z"/>
<path d="M3764 4277 c-99 -33 -237 -126 -266 -181 -6 -11 15 3 46 32 69 63
177 116 268 133 126 23 299 -27 376 -109 l36 -37 -20 34 c-22 39 -76 77 -154
111 -67 29 -220 38 -286 17z"/>
<path d="M2429 4237 c-38 -15 -79 -83 -79 -130 0 -48 31 -102 70 -122 37 -19
103 -19 140 0 50 26 89 101 75 145 -6 18 -7 18 -26 -1 -10 -10 -28 -19 -39
-19 -27 0 -60 35 -60 63 0 26 27 57 51 58 8 0 6 4 -6 9 -27 12 -94 10 -126 -3z"/>
<path d="M3800 4243 c-23 -9 -60 -45 -76 -75 -31 -59 -9 -136 51 -177 47 -32
132 -27 171 10 47 43 65 99 48 144 -6 14 -8 13 -21 -5 -20 -28 -78 -28 -93 0
-17 32 -8 73 18 86 20 10 21 12 7 18 -20 7 -84 7 -105 -1z"/>
<path d="M2617 2220 c-65 -70 -121 -176 -144 -276 l-16 -71 -74 -11 c-240 -38
-337 -190 -350 -547 -8 -235 19 -322 127 -402 64 -47 85 -56 114 -49 32 8 44
48 25 83 -12 22 -18 25 -55 20 -36 -4 -47 0 -72 23 -67 61 -85 153 -71 367 22
348 105 445 385 445 89 0 112 -4 157 -25 69 -31 103 -66 138 -142 54 -114 79
-425 44 -543 -27 -88 -96 -150 -156 -137 -40 9 -64 -1 -78 -31 -24 -53 38
-101 86 -67 14 10 45 28 67 41 130 73 174 188 161 424 -19 365 -108 509 -339
543 l-44 7 19 70 c21 75 58 155 94 203 25 33 59 135 46 135 -5 0 -34 -27 -64
-60z"/>
<path d="M3630 2273 c0 -29 45 -150 65 -178 71 -93 144 -301 169 -482 24 -173
28 -283 11 -283 -26 0 -85 -61 -96 -100 -50 -168 180 -271 273 -122 44 72 14
174 -62 209 -39 18 -39 19 -40 74 0 82 -18 252 -36 344 -32 170 -74 280 -150
395 -44 66 -134 163 -134 143z"/>
</g>
</svg>
