<?xml version="1.0" standalone="no"?>
<!DOCTYPE svg PUBLIC "-//W3C//DTD SVG 20010904//EN"
 "http://www.w3.org/TR/2001/REC-SVG-20010904/DTD/svg10.dtd">
<svg version="1.0" xmlns="http://www.w3.org/2000/svg"
 width="275.000000pt" height="183.000000pt" viewBox="0 0 275.000000 183.000000"
 preserveAspectRatio="xMidYMid meet">
<metadata>
Created by potrace 1.16, written by Peter Selinger 2001-2019
</metadata>
<g transform="translate(0.000000,183.000000) scale(0.100000,-0.100000)"
fill="#000000" stroke="none">
<path d="M855 1815 c-53 -25 -65 -39 -59 -71 6 -37 31 -56 67 -51 21 3 27 0
25 -12 -3 -26 22 -91 37 -91 7 0 19 15 26 33 7 17 48 67 91 110 43 42 78 82
78 87 0 16 -229 12 -265 -5z"/>
<path d="M1168 1783 c3 -27 9 -57 13 -68 6 -14 8 -5 4 25 l-4 45 13 -41 c59
-176 205 -248 389 -191 60 19 125 73 204 172 18 22 30 31 26 21 -4 -13 -3 -17
5 -12 7 4 12 5 12 2 0 -8 -103 -131 -113 -135 -5 -2 -18 -12 -28 -22 -11 -11
-19 -17 -19 -14 0 3 -11 -2 -25 -11 -13 -8 -29 -13 -34 -9 -7 3 -8 0 -5 -9 7
-19 38 -29 63 -21 16 5 19 -2 25 -45 4 -28 4 -55 1 -60 -3 -5 1 -28 10 -52 28
-80 24 -86 -49 -84 -35 0 -62 -2 -60 -6 2 -4 0 -9 -6 -13 -13 -8 -13 -45 0
-45 6 0 10 -9 10 -20 0 -24 -6 -24 -45 1 -16 10 -37 22 -45 25 -8 4 -24 14
-34 23 -18 15 -19 15 -13 -10 4 -15 20 -41 37 -59 16 -17 44 -59 61 -93 17
-34 36 -65 42 -69 19 -12 0 -20 -20 -9 -55 30 -127 61 -143 61 -22 0 -31 -20
-23 -50 5 -20 4 -21 -16 -11 -16 9 -20 18 -15 33 5 18 3 20 -12 13 -11 -4 -27
-10 -36 -12 -31 -9 -14 -73 19 -73 14 0 14 -2 -3 -15 -10 -8 -29 -15 -41 -15
-20 0 -73 -39 -73 -54 0 -3 14 -6 31 -6 22 0 32 -5 36 -20 6 -21 37 -27 48
-10 4 6 11 7 17 4 6 -4 4 3 -5 17 -9 13 -17 31 -17 41 0 22 34 41 63 35 19 -4
18 -4 -5 -6 -29 -1 -45 -16 -28 -26 5 -3 10 0 10 7 1 8 6 6 15 -6 8 -10 12
-23 9 -27 -3 -5 0 -9 7 -9 6 0 31 -10 55 -21 37 -19 42 -26 41 -52 -2 -27 2
-32 30 -39 18 -5 35 -13 39 -19 15 -25 -63 13 -164 79 -20 13 -23 13 -22 1 5
-31 -1 -40 -30 -50 -22 -8 -30 -17 -30 -34 0 -29 18 -42 26 -21 10 25 33 19
40 -10 4 -17 9 -22 14 -14 5 8 18 10 36 6 16 -4 37 -7 46 -7 25 0 44 -27 29
-42 -9 -9 -23 -7 -63 7 -47 16 -52 17 -60 2 -9 -17 -15 -22 -58 -55 -24 -19
-24 -20 -3 -18 12 0 19 5 16 10 -3 5 0 8 8 5 8 -3 16 -12 17 -22 3 -15 -3 -17
-45 -14 -35 2 -49 7 -51 20 -2 9 5 18 15 21 14 4 13 5 -4 6 -14 1 -23 -5 -23
-13 0 -8 -7 -22 -16 -30 -14 -15 -11 -16 28 -17 24 0 53 -2 65 -5 12 -2 25 1
28 6 3 5 12 7 20 4 11 -5 12 0 6 24 -8 25 -6 29 8 25 13 -3 16 -12 13 -35 -3
-20 -1 -29 6 -24 6 3 13 2 16 -3 4 -5 32 -15 64 -21 31 -7 109 -29 172 -50 63
-21 124 -41 135 -44 11 -3 -11 -4 -50 -4 -92 1 -143 -2 -127 -9 22 -9 13 -23
-15 -24 -33 -1 -77 -17 -53 -19 8 -1 53 -2 100 -2 71 0 77 -1 38 -7 -61 -9
-69 -18 -23 -27 31 -5 34 -8 21 -16 -10 -5 -24 -7 -33 -4 -8 3 -36 -4 -61 -16
-53 -24 -89 -28 -147 -17 -51 10 -57 4 -14 -15 101 -43 231 -96 238 -96 15 0
124 -51 119 -56 -7 -7 -137 22 -180 41 -21 8 -41 15 -45 16 -5 0 -17 2 -28 4
-11 2 -38 7 -60 10 l-40 6 50 -29 c54 -30 135 -83 202 -132 l43 -31 162 13
c155 12 164 14 193 40 l30 28 -32 -6 c-41 -8 -43 9 -6 48 26 27 26 52 0 30
-29 -24 -111 -44 -157 -38 -82 11 -257 62 -247 72 2 2 48 -8 103 -22 121 -31
188 -29 221 4 20 20 22 29 15 50 -8 26 -7 27 37 37 25 6 45 14 46 19 0 5 -22
15 -49 23 -61 18 -50 34 27 39 38 3 57 0 60 -8 2 -7 2 -3 0 10 -7 43 8 92 27
92 24 0 34 31 33 103 -1 69 13 75 23 10 4 -31 3 -53 -6 -67 -12 -20 -12 -20 7
-4 11 10 23 18 27 18 5 0 52 24 106 54 105 57 246 113 257 102 4 -4 -3 -9 -15
-13 -17 -4 -21 -10 -16 -25 3 -12 -1 -27 -12 -39 -17 -18 -16 -19 14 -19 38 0
43 -7 33 -52 -7 -31 -6 -35 7 -31 12 5 14 1 9 -20 -7 -27 0 -57 13 -57 4 0 11
11 14 25 4 14 12 25 19 24 49 -6 47 -13 47 210 0 205 0 209 -22 224 l-23 16
23 0 c17 1 22 7 22 26 0 23 -2 24 -47 20 l-48 -5 45 21 c41 20 43 22 22 30
-12 5 -22 15 -22 23 0 19 -36 40 -56 32 -17 -7 -19 15 -2 32 9 9 8 12 -6 12
-10 0 -16 6 -14 13 3 7 28 13 66 15 34 2 62 7 62 11 0 4 -44 13 -97 20 -54 6
-126 21 -159 32 -54 17 -62 24 -68 49 -3 18 -12 30 -21 30 -8 0 -15 4 -15 8 0
5 -16 17 -35 28 -27 14 -35 25 -35 46 0 16 5 28 10 28 6 0 10 5 10 11 0 7 -11
8 -29 4 -26 -5 -32 -2 -44 22 -24 45 -59 80 -104 103 -54 28 -74 60 -77 123
-1 43 -5 51 -19 49 -10 -2 -16 3 -15 9 2 7 -13 21 -32 30 -46 24 -53 23 -45
-2 5 -15 4 -19 -4 -15 -6 4 -11 13 -11 20 0 7 -15 30 -34 52 l-34 39 -13 -27
c-7 -16 -16 -28 -21 -28 -13 0 -10 9 12 40 16 23 17 29 6 33 -8 3 -17 1 -20
-6 -3 -9 -5 -9 -5 1 -1 9 -77 12 -345 12 l-344 0 6 -47z m107 -65 c15 -12 42
-22 59 -22 20 -1 31 -6 31 -16 0 -8 15 -18 33 -24 17 -5 32 -14 32 -21 0 -6
10 -11 23 -11 18 1 22 -4 22 -29 0 -26 -4 -30 -32 -33 -52 -5 -110 16 -146 53
-19 19 -39 35 -44 35 -14 0 -23 24 -23 61 0 35 8 36 45 7z m595 -90 c0 -51 4
-65 27 -92 25 -29 26 -30 20 -6 -11 41 -18 149 -8 120 5 -14 9 -35 10 -47 1
-13 10 -37 22 -55 l20 -33 -4 55 c-3 30 -7 73 -11 95 -6 39 -5 38 46 -39 65
-97 116 -194 117 -222 1 -11 10 -39 22 -63 11 -23 19 -50 18 -59 -4 -24 11
-63 21 -57 12 7 30 -27 30 -56 0 -22 0 -22 -16 -3 -8 10 -13 14 -10 9 2 -6 1
-17 -4 -25 -6 -10 -12 -5 -23 21 -15 36 -43 66 -53 56 -4 -3 1 -27 10 -53 9
-26 14 -50 11 -52 -2 -3 -7 2 -10 10 -4 9 -25 30 -47 49 -40 32 -41 32 -35 8
15 -62 -120 139 -148 220 -9 25 -25 64 -34 86 -19 42 -18 67 2 59 9 -3 11 15
9 72 -3 55 -1 75 7 70 6 -4 11 -34 11 -68z m-31 -235 c34 -106 52 -142 100
-210 33 -45 54 -79 48 -77 -18 8 -107 115 -127 151 -9 18 -28 47 -42 65 -38
52 -78 202 -49 183 5 -3 12 -1 16 5 3 5 8 10 9 10 2 0 22 -57 45 -127z m-329
-397 c0 -8 11 -17 25 -20 14 -4 25 -11 25 -16 0 -6 7 -10 15 -10 10 0 15 -10
15 -27 0 -24 7 -31 45 -46 25 -11 45 -23 45 -28 0 -5 5 -9 11 -9 16 0 53 -50
57 -78 3 -21 -1 -23 -29 -20 -27 2 -34 8 -41 35 -6 22 -26 46 -68 78 -32 25
-65 51 -72 58 -7 6 -25 18 -40 26 -28 15 -33 26 -22 55 8 20 34 21 34 2z"/>
<path d="M2430 1795 c0 -19 5 -46 12 -60 14 -31 1 -47 -18 -21 -13 19 -14 18
-14 -10 0 -42 19 -65 48 -58 17 5 21 11 17 25 -4 11 -4 19 -1 19 2 0 12 -23
22 -52 9 -28 28 -62 42 -75 14 -13 22 -26 19 -29 -11 -11 -57 6 -57 21 0 8 -6
15 -14 15 -8 0 -17 7 -20 16 -3 8 -11 12 -17 8 -8 -5 -6 -10 5 -16 9 -5 16
-16 16 -23 0 -8 4 -15 9 -15 12 0 22 -43 12 -50 -16 -11 -20 -40 -6 -54 8 -7
11 -17 7 -21 -4 -4 2 -5 13 -3 12 2 19 -2 18 -9 -2 -7 9 -20 25 -30 15 -10 30
-21 33 -26 3 -4 13 -5 21 -2 9 4 19 2 22 -3 3 -6 15 -8 27 -5 19 5 20 4 8 -15
l-13 -21 -19 20 c-11 11 -22 18 -25 14 -7 -6 -8 -5 80 -74 l67 -52 1 311 0
310 -160 0 -160 0 0 -35z"/>
<path d="M981 733 c-11 -40 -7 -279 4 -325 9 -34 15 -35 39 -3 17 23 20 23 31
9 11 -16 12 -15 18 0 5 12 13 15 28 11 18 -6 20 -4 14 14 -4 12 -2 28 4 35 6
7 10 24 9 37 -2 16 5 27 22 36 l25 13 -34 0 c-19 0 -54 10 -79 23 -56 27 -77
70 -69 139 7 57 1 62 -12 11z"/>
<path d="M2650 211 c-17 -33 -12 -61 10 -61 24 0 26 -18 3 -27 -25 -10 -63
-45 -58 -54 3 -4 -6 -16 -20 -27 -44 -35 -32 -42 70 -42 l95 0 0 106 0 106
-25 -6 c-18 -5 -27 -2 -31 9 -8 21 -31 19 -44 -4z"/>
</g>
</svg>
