<?xml version="1.0" standalone="yes"?>
<svg xmlns="http://www.w3.org/2000/svg" width="311" height="162">
<path style="fill:#103e5c; stroke:none;" d="M0 0L0 162L115 162C129.574 162 148.588 166.652 155 150L158 151L160 150L164 143L169 144L167 139L168 139L171 141L170 138L172 139L171 134L174 135L173 133L174 133L177 134L180 123L184 123C184.655 119.517 187.724 118.979 191 119L192 112L189 112L192 103L198 103L198 102L196 102L196 101L199 100L194 99L194 98L199 93L187 91L187 90L199 86L192 82L192 81L200 84L201 81L191 81L194 78L194 77L191 76L198 69L206 69L206 68L202 69C199.519 59.5948 204.106 54.7639 214 54L217 51L217 50L203 52L203 49L200 47L207 44L205 40L208 40L209 38L209 37L207 37L207 36L212 35L212 34L209 34L209 33L210 31L213 32L216 29L213 24L216 23L216 22L213 23C215.659 20.0082 219.881 15.45 216 12L220 4L221 4L221 8L222 8L224 0L0 0z"/>
<path style="fill:#37283b; stroke:none;" d="M222 8L221 8L221 4L220 4L216 12C218.772 16.0771 215.353 19.3773 213 23L216 22L216 23L213 24L222 29L227 11L230 8C241.173 14.0113 257.129 2.0927 262.976 19.284C263.685 21.3692 263.146 23.8569 263 26L266 25C261.546 36.2336 264.582 39.7911 275 41L280 37L282 32L286 34L288 33L297 25C310.824 22.0953 311 11.5673 311 0L244 0C234.657 0 224.337 -3.09712 222 8M216.333 6.66667L216.667 7.33333L216.333 6.66667z"/>
<path style="fill:#103e5c; stroke:none;" d="M230 8L227 11L223 26C228.12 23.3377 233.268 13.362 230 8z"/>
<path style="fill:#b54342; stroke:none;" d="M248 8L242 10L242 11L249 13L248 8M250 8L251 9L250 8M253 8L259.853 18.0432L263 49L264 49L264 46L265 46C267.963 56.4907 277.933 50.0177 284 47L277 56L274 55L276 61L275 61L275 58L274 58C276.381 67.5625 278.846 90.7251 288 96L286 105L286 111L290 113L285 114L284 116L282 119L282 120L300 121L300 122L287 125L279 123L278 132L265.816 144.54L256 150C238.906 136.765 220.102 116.642 220 93L216 88L209 92L211 88L201 90L207 92L207 93L200 94L197 90L203 97L203 98C199.946 99.8326 200.494 104.499 203 105L201 111L204 118L205 118L204 97L207 98L206 105C209.526 104.295 211.368 112.526 211 114C216.657 109.057 211.915 99.1362 206 97L206 94L207 93L214 90L213 92L218.028 101.917L222.5 116.917L233 136L230 139L233 138L233 139C231.017 139.713 214.969 144.876 225 146L224 149L227 149L227 152L225 151L224 154C218.795 152.022 215.196 156.04 212 160L213 162C216.054 161.346 215.936 159.993 216 157L217 157L218 162L311 162L311 128L307 130L306 127L307 126L311 127L311 117L307 115L311 113L311 112L301 114L300 112L300 111L311 109L309 107L311 107L311 106L309 106C310.797 103.146 310.151 102.025 307 101L307 100L311 99L311 70C304.166 72.01 289.019 69.8942 285 76C283.937 72.1984 284.442 70.7536 288 69L288 68L287 67L284 69C284.333 64.6441 283.195 63.1617 279 62L279 61L287 58L287 57L284 57L284 56L290 56L290 50C292.993 49.9358 294.346 50.0539 295 47C296.587 47.5146 300.115 47.3545 297 46C299.752 43.7983 300.239 41.4479 298 41L298 40L311 38L311 17L297 25L288 33L286 32L286 34L282 32L280 37C276.749 37.1343 275.948 37.8978 275 41C264.824 38.4864 262.993 36.8302 266 25L263 26C264.05 17.4808 260.19 12.5924 253 8z"/>
<path style="fill:#e0854d; stroke:none;" d="M232 9L232 10L237 10L232 9z"/>
<path style="fill:#b54342; stroke:none;" d="M237 9L238 12L240 12L241 9L237 9z"/>
<path style="fill:#e0854d; stroke:none;" d="M249 9L250 10L249 9z"/>
<path style="fill:#d8b6bf; stroke:none;" d="M247 28L248 28L254 16L256 16C257.541 25.9719 253.87 40.2883 257.894 49.9059C261.863 59.3952 274.648 58.8006 276 72L277 72L274.046 57.1042L279 50C277.086 51.0548 275.094 52.5356 273.01 53.2222C254.548 59.3037 262.476 24.4242 259.401 17.1289C252.047 -0.318542 247.167 19.93 247 28z"/>
<path style="fill:#e0854d; stroke:none;" d="M253 9L254 10L253 9z"/>
<path style="fill:#b54342; stroke:none;" d="M256.667 9.33333L257.333 9.66667L256.667 9.33333z"/>
<path style="fill:#d8b6bf; stroke:none;" d="M232 10C230.914 18.0556 227.942 27.9911 219 30C221.864 35.5972 223.663 40.8261 230 43C224.218 54.0541 196.54 52.8816 202 68L215 64L215 63L201 64C204.805 60.3889 210.789 58.354 216 59L215 54L224 54C225.295 59.9335 241.05 63.9394 247 65L245 61L251 60L250 63L253 64L253 66C242.263 72.2791 254.152 86.9532 259 93C261.314 89.0123 258.645 85.9737 255 84L261 78L259 76L268 75L270 71C259.347 60.0124 247.416 51.2091 232 48L240 40L240 41C234.79 44.0102 236.64 48.0943 242 49L241 40L245 40L243 43L243 44L257 55L257 54L255 55L255 54C256.846 46.6893 254.236 35.1658 252 28L251 28L251 31L247 32L246 32C245.97 26.622 247.208 19.2845 245.682 14.1481C243.588 7.09743 239.225 14.5145 238.915 17.9961C238.734 20.0249 238.371 21.9992 238 24L237 24L238 10L232 10z"/>
<path style="fill:#e0854d; stroke:none;" d="M240.667 10.3333L241.333 10.6667L240.667 10.3333M254 10L254 13L255 13L254 10M245 11L246 12L245 11z"/>
<path style="fill:#b54342; stroke:none;" d="M231 12L232 13L231 12z"/>
<path style="fill:#e0854d; stroke:none;" d="M238.333 12.6667L238.667 13.3333L238.333 12.6667M231 13L232 14L231 13M246 13L246 23L247 23L249 13L246 13M255.667 13.3333L256.333 13.6667L255.667 13.3333z"/>
<path style="fill:#b54342; stroke:none;" d="M260 13L261 14L260 13M230 14L227 24L228 24L230 14M238 14L239 15L238 14z"/>
<path style="fill:#e0854d; stroke:none;" d="M258 14L259 15L258 14M237 15L237 24L238 24L239 15L237 15M259 15L260 16L259 15z"/>
<path style="fill:#b54342; stroke:none;" d="M262 15L263 16L262 15z"/>
<path style="fill:#37283b; stroke:none;" d="M215 16L216 17L215 16z"/>
<path style="fill:#e0854d; stroke:none;" d="M254 16L248 28L247 28L245 24L246 32L247 32L251 28L252 28L253 32L254 32C253.758 26.9167 252.116 22.7494 258 21L258 20L254 16M230 17L231 18L230 17z"/>
<path style="fill:#37283b; stroke:none;" d="M210 18L211 19L210 18z"/>
<path style="fill:#b54342; stroke:none;" d="M247 18L247 21L248 21L247 18M254 18L255 19L254 18z"/>
<path style="fill:#e0854d; stroke:none;" d="M204 20L205 21L204 20z"/>
<path style="fill:#37283b; stroke:none;" d="M211 20L210 22L212 22L211 20z"/>
<path style="fill:#e0854d; stroke:none;" d="M229 20L230 21L229 20M260 20L260 24L261 24L260 20z"/>
<path style="fill:#b54342; stroke:none;" d="M206 21L207 22L206 21M255 43L256 43L256 21C250.554 24.0886 253.944 37.3142 255 43z"/>
<path style="fill:#37283b; stroke:none;" d="M256 27L257 27L258 21C254.954 22.7212 254.724 23.7841 256 27z"/>
<path style="fill:#b54342; stroke:none;" d="M258 21L259 22L258 21z"/>
<path style="fill:#e0854d; stroke:none;" d="M207 22L208 23L207 22M228.333 22.6667L228.667 23.3333L228.333 22.6667M208 23L209 24L208 23z"/>
<path style="fill:#b54342; stroke:none;" d="M209 23L210 24L209 23M246 23L247 24L246 23z"/>
<path style="fill:#37283b; stroke:none;" d="M208 24L210 26L208 24z"/>
<path style="fill:#103e5c; stroke:none;" d="M209 24L210 25L209 24z"/>
<path style="fill:#e0854d; stroke:none;" d="M210 24L211 25L210 24z"/>
<path style="fill:#b54342; stroke:none;" d="M226 24L225 26L226 24M211.667 25.3333L212.333 25.6667L211.667 25.3333z"/>
<path style="fill:#103e5c; stroke:none;" d="M221 25L222 26L221 25z"/>
<path style="fill:#e0854d; stroke:none;" d="M226 25L227 26L226 25z"/>
<path style="fill:#b54342; stroke:none;" d="M258 25L259 26L258 25z"/>
<path style="fill:#37283b; stroke:none;" d="M211 26L209 29L214 28L214 27L211 28L211 26z"/>
<path style="fill:#103e5c; stroke:none;" d="M212 26L211 28L213 28L212 26z"/>
<path style="fill:#e0854d; stroke:none;" d="M213 26L214 27L213 26z"/>
<path style="fill:#b54342; stroke:none;" d="M223 26L221 31L222 31L225 26L223 26M257 26L258 27L257 26M215 27L216 28L215 27z"/>
<path style="fill:#103e5c; stroke:none;" d="M221.667 27.3333L222.333 27.6667L221.667 27.3333z"/>
<path style="fill:#e0854d; stroke:none;" d="M224 27L225 28L224 27M255 27L256 43L255 43L255 40L254 40L255 55L256 55L256 49L257 27L255 27z"/>
<path style="fill:#103e5c; stroke:none;" d="M210 28L211 29L210 28z"/>
<path style="fill:#37283b; stroke:none;" d="M213 32L210 31L209 33L209 34L212 34L212 35L207 36L209 38L208 40L205 40L205 41L207 44L200 47L203 49L203 52L219 48L222 49C223.605 46.4457 225.588 44.2968 223 42C222.959 39.0042 222.201 35.4667 219 35C219.081 30.8158 213.671 26.0761 213 32z"/>
<path style="fill:#e0854d; stroke:none;" d="M216 28L218 30L216 28z"/>
<path style="fill:#103e5c; stroke:none;" d="M217 28L218 29L217 28z"/>
<path style="fill:#e0854d; stroke:none;" d="M223 28L224 29L223 28z"/>
<path style="fill:#b54342; stroke:none;" d="M272.667 28.3333L273.333 28.6667L272.667 28.3333M218.333 29.6667L218.667 30.3333L218.333 29.6667z"/>
<path style="fill:#103e5c; stroke:none;" d="M220 29L220 31L222 29L220 29z"/>
<path style="fill:#e0854d; stroke:none;" d="M260 30L260 39L261 39L260 30z"/>
<path style="fill:#b54342; stroke:none;" d="M219 31L220 32L219 31z"/>
<path style="fill:#103e5c; stroke:none;" d="M220 32L219 35L220 32M213 33L214 34L213 33z"/>
<path style="fill:#37283b; stroke:none;" d="M207.667 34.3333L208.333 34.6667L207.667 34.3333z"/>
<path style="fill:#e0854d; stroke:none;" d="M221 34L222 35L221 34z"/>
<path style="fill:#b54342; stroke:none;" d="M221 35L222 36L221 35z"/>
<path style="fill:#103e5c; stroke:none;" d="M221 36L222 37L221 36z"/>
<path style="fill:#37283b; stroke:none;" d="M206 37L207 38L206 37z"/>
<path style="fill:#103e5c; stroke:none;" d="M220 37L221 38L220 37z"/>
<path style="fill:#e0854d; stroke:none;" d="M222 37L223 38L222 37z"/>
<path style="fill:#37283b; stroke:none;" d="M298 40L298 41L300 42L297 46L295 47L290 50L290 56L284 56L284 57L287 57L287 58L279 61L279 62C282.771 63.5459 284.072 64.876 284 69L287 67L288 68L288 69L287 70C283.23 70.4424 283.67 72.9264 285 76L286 73L311 70C309.513 65.4083 305.443 64.6567 301 64L301 63L306 62L306 61L297 64L299 62L299 61L293 60L293 59L301 59L311 55L311 54L300 55C303.047 53.6026 307.907 53.2395 309.972 50.3511C311.962 47.5683 312.177 38.173 307.852 37.4259C304.709 36.8831 301.035 39.3144 298 40M204 38L205 39L204 38z"/>
<path style="fill:#b54342; stroke:none;" d="M222 38L223 39L222 38M223 39L224 40L223 39M272 39L273 40L272 39M224 40L223 41L222 49L228 47L228 43L224 40z"/>
<path style="fill:#e0854d; stroke:none;" d="M232 48L237 50L235 44L240 41C235.813 40.1049 233.651 44.6973 232 48M241 40L245 53L249 52L249 53L247 54L258 60L258 55L254 56C253.095 49.9751 249.916 42.8501 243 44L243 43L245 40L241 40M260 40C260.174 46.6117 265.665 58.1157 274 53L265 46L264 46L264 49L263 49L260 40z"/>
<path style="fill:#37283b; stroke:none;" d="M290.667 40.3333L291.333 40.6667L290.667 40.3333M295 40L296 41L295 40M204 41L205 42L204 41z"/>
<path style="fill:#e0854d; stroke:none;" d="M225 41L226 42L225 41M233 41L233 43L235 43L235 41L233 41z"/>
<path style="fill:#b54342; stroke:none;" d="M302.667 41.3333L303.333 41.6667L302.667 41.3333z"/>
<path style="fill:#37283b; stroke:none;" d="M202 42L200 45L200 46L205 44L205 43L202 42z"/>
<path style="fill:#e0854d; stroke:none;" d="M227 42L228 43L227 42M228 43L229 47L230 43L228 43z"/>
<path style="fill:#37283b; stroke:none;" d="M295 43L296 44L295 43z"/>
<path style="fill:#b54342; stroke:none;" d="M229 44L230 45L229 44M235.333 44.6667L235.667 45.3333L235.333 44.6667z"/>
<path style="fill:#e0854d; stroke:none;" d="M252.333 44.6667L252.667 45.3333L252.333 44.6667z"/>
<path style="fill:#37283b; stroke:none;" d="M198 45L199 46L198 45M268.667 45.3333L269.333 45.6667L268.667 45.3333M274 45L275 46L274 45M279 45L280 46L279 45M293 45L294 46L293 45M295 45L296 46L295 45z"/>
<path style="fill:#e0854d; stroke:none;" d="M225 46L226 47L225 46M286 46L287 47L286 46M226 47L227 48L226 47z"/>
<path style="fill:#b54342; stroke:none;" d="M235 47L236 48L235 47z"/>
<path style="fill:#e0854d; stroke:none;" d="M279 51L284 47L279 51z"/>
<path style="fill:#103e5c; stroke:none;" d="M219 48L220 49L219 48z"/>
<path style="fill:#b54342; stroke:none;" d="M220 48L216 51L216 52L222 49L220 48M236 48L236 49L243 50L243 49L236 48z"/>
<path style="fill:#e0854d; stroke:none;" d="M238 48L239 49L238 48z"/>
<path style="fill:#b54342; stroke:none;" d="M256 48L257 49L256 48z"/>
<path style="fill:#e0854d; stroke:none;" d="M275 48L276 49L275 48z"/>
<path style="fill:#37283b; stroke:none;" d="M198 49L197 53L203 53L198 49z"/>
<path style="fill:#e0854d; stroke:none;" d="M273 49L274 50L273 49z"/>
<path style="fill:#d8b6bf; stroke:none;" d="M280 49L281 50L280 49z"/>
<path style="fill:#103e5c; stroke:none;" d="M198 50L199 51L198 50z"/>
<path style="fill:#e0854d; stroke:none;" d="M220 50L221 51L220 50z"/>
<path style="fill:#37283b; stroke:none;" d="M241 50L241 51L244 52L241 50M193 51L195 53L193 51M210 51L211 52L210 51z"/>
<path style="fill:#e0854d; stroke:none;" d="M242 51L243 52L242 51z"/>
<path style="fill:#b54342; stroke:none;" d="M244 51L245 52L244 51M257 51L258 60L259 60L259 57L264 59L275 74L271 71L271 77L277 78C276.219 62.9508 266.936 59.508 257 51z"/>
<path style="fill:#e0854d; stroke:none;" d="M276 51L277 52L276 51z"/>
<path style="fill:#b54342; stroke:none;" d="M296 51L296 56L301 53L301 52L296 51M302 51L304 53L302 51M300 54L300 55C303.814 55.609 310.082 55.2839 311 51L300 54z"/>
<path style="fill:#37283b; stroke:none;" d="M205 52L206 53L205 52z"/>
<path style="fill:#b54342; stroke:none;" d="M213 52L213 53L216 53L213 52M246 52L246 53L249 53L246 52z"/>
<path style="fill:#e0854d; stroke:none;" d="M258 52L259 53L258 52M278 52L279 53L278 52z"/>
<path style="fill:#b54342; stroke:none;" d="M292 52L295 55L295 54L292 52M208 55L208 56L213 53L208 55z"/>
<path style="fill:#e0854d; stroke:none;" d="M214 53L215 54L214 53M259 53L262 55L259 53M274 55C276.396 55.5746 276.487 55.4751 277 53L274 55z"/>
<path style="fill:#37283b; stroke:none;" d="M297 53L298 54L297 53z"/>
<path style="fill:#b54342; stroke:none;" d="M215 54L216 55L215 54z"/>
<path style="fill:#37283b; stroke:none;" d="M216 54L215 57L216 54z"/>
<path style="fill:#e0854d; stroke:none;" d="M217 56L205 61L205 62L207 63L204 64L204 65L215 63L213 65L215 68L211 74L214 75L211 79L221 90L224 89L224 87L219 86L217 62C232.926 58.9133 237.119 65.2267 250 72L253 66L253 64L250 63L251 60L245 61L247 65C240.827 63.2217 226.191 59.9587 224 54L217 56z"/>
<path style="fill:#b54342; stroke:none;" d="M251 54L252 55L251 54z"/>
<path style="fill:#e0854d; stroke:none;" d="M210 55L211 56L210 55M262 55L262 56L269 58L262 55z"/>
<path style="fill:#b54342; stroke:none;" d="M301 59L293 59L293 60L299 61L299 62L297 64L306 61L306 62L301 63L301 64L311 67L309 58L309 57L311 55L301 59M204 56L205 57L204 56M206 56L207 57L206 56z"/>
<path style="fill:#e0854d; stroke:none;" d="M207.667 56.3333L208.333 56.6667L207.667 56.3333M214 56L215 57L214 56z"/>
<path style="fill:#d8b6bf; stroke:none;" d="M222 56L223 57L222 56z"/>
<path style="fill:#37283b; stroke:none;" d="M258 56L259 57L258 56z"/>
<path style="fill:#e0854d; stroke:none;" d="M273 56L275 61L276 61L273 56z"/>
<path style="fill:#37283b; stroke:none;" d="M279 56L280 57L279 56z"/>
<path style="fill:#e0854d; stroke:none;" d="M203 57L203 58L206 58L203 57z"/>
<path style="fill:#b54342; stroke:none;" d="M215.667 57.3333L216.333 57.6667L215.667 57.3333z"/>
<path style="fill:#d8b6bf; stroke:none;" d="M217 57L218 58L217 57z"/>
<path style="fill:#37283b; stroke:none;" d="M259 57C260.131 63.7286 269.635 70.2211 275 74L264 59L259 57z"/>
<path style="fill:#b54342; stroke:none;" d="M291 57L292 61L293 61L291 57M294 57L295 58L294 57M296.667 57.3333L297.333 57.6667L296.667 57.3333z"/>
<path style="fill:#37283b; stroke:none;" d="M309.667 57.3333L310.333 57.6667L309.667 57.3333z"/>
<path style="fill:#b54342; stroke:none;" d="M201 58L202 59L201 58z"/>
<path style="fill:#e0854d; stroke:none;" d="M202 58L203 59L202 58z"/>
<path style="fill:#b54342; stroke:none;" d="M218 58L219 59L218 58z"/>
<path style="fill:#e0854d; stroke:none;" d="M269 58L270 59L269 58z"/>
<path style="fill:#b54342; stroke:none;" d="M289 58L289 61L290 61L289 58z"/>
<path style="fill:#37283b; stroke:none;" d="M303 59L303 60L308 59L303 59z"/>
<path style="fill:#e0854d; stroke:none;" d="M200 59L201 60L200 59z"/>
<path style="fill:#b54342; stroke:none;" d="M208 62L215 62L214 59L208 62M221 59L222 60L221 59z"/>
<path style="fill:#e0854d; stroke:none;" d="M270 59L270 61L272 61L270 59z"/>
<path style="fill:#b54342; stroke:none;" d="M207 60L208 61L207 60M224 60L224 61L228 61L224 60z"/>
<path style="fill:#37283b; stroke:none;" d="M300.667 60.3333L301.333 60.6667L300.667 60.3333M307 60L308 61L307 60z"/>
<path style="fill:#e0854d; stroke:none;" d="M203 61L202 65L203 65L203 61z"/>
<path style="fill:#b54342; stroke:none;" d="M203 64L207 63L207 62L205 61L203 64z"/>
<path style="fill:#d8b6bf; stroke:none;" d="M216 61L217 62L216 61z"/>
<path style="fill:#b54342; stroke:none;" d="M217 62L219 86L224 87L223 93L224 93L227 90L225 101L226 101L228 87L232 86L236 81L236 80L234 81L234 80L238 76L234 70C238.012 70.899 240.804 70.6345 242 75L239 74L240 77L242 77L241 64C238.186 64 237.216 61.0447 234 61C224.844 60.8728 223 68.7674 223 76C219.126 70.7554 221.303 69.3153 223 64L220 66L219 63L222 62L217 62z"/>
<path style="fill:#37283b; stroke:none;" d="M219 63L220 66L223 64C220.465 68.902 218.144 71.4964 223 76C223.311 68.7819 224.935 64.6005 232 62L219 63z"/>
<path style="fill:#b54342; stroke:none;" d="M260 61L261 62L260 61z"/>
<path style="fill:#e0854d; stroke:none;" d="M272.333 61.6667L272.667 62.3333L272.333 61.6667M274 61L276 67L277 67L274 61z"/>
<path style="fill:#b54342; stroke:none;" d="M201.333 62.6667L201.667 63.3333L201.333 62.6667z"/>
<path style="fill:#e0854d; stroke:none;" d="M261 62L262 63L261 62z"/>
<path style="fill:#37283b; stroke:none;" d="M308.667 62.3333L309.333 62.6667L308.667 62.3333M17 63L17 64L27 64L17 63M44 66L58 65C54.1504 62.0836 46.9716 61.794 44 66z"/>
<path style="fill:#e0854d; stroke:none;" d="M230 64L231 68L236 64L230 64z"/>
<path style="fill:#37283b; stroke:none;" d="M237 63L238 64L237 63z"/>
<path style="fill:#e0854d; stroke:none;" d="M262 63L263 64L262 63M273 63L275 71L276 71L273 63z"/>
<path style="fill:#37283b; stroke:none;" d="M305.667 63.3333L306.333 63.6667L305.667 63.3333z"/>
<path style="fill:#b54342; stroke:none;" d="M16 64L17 103L18 103L16 64z"/>
<path style="fill:#e0854d; stroke:none;" d="M17 64L17 102L27 102L27 81L28 81L36 95L46 81L47 81L47 102L57 102L57 64C44.1454 64 43.6494 70.0019 36 79C32.8182 68.1871 27.8625 64 17 64z"/>
<path style="fill:#37283b; stroke:none;" d="M28 64L33 73L34 73L28 64z"/>
<path style="fill:#b54342; stroke:none;" d="M200 64L201 65L200 64z"/>
<path style="fill:#e0854d; stroke:none;" d="M228 64L229 65L228 64z"/>
<path style="fill:#37283b; stroke:none;" d="M239 64L240 65L239 64z"/>
<path style="fill:#d8b6bf; stroke:none;" d="M248 64L249 65L248 64z"/>
<path style="fill:#b54342; stroke:none;" d="M264 64L265 65L264 64z"/>
<path style="fill:#37283b; stroke:none;" d="M279 64L280 65L279 64z"/>
<path style="fill:#b54342; stroke:none;" d="M286 65L286 66L290 68L289 64L286 65M292 64L294 67L295 66L294 64L292 64z"/>
<path style="fill:#37283b; stroke:none;" d="M308.667 64.3333L309.333 64.6667L308.667 64.3333M15 65L15 75L16 75L15 65z"/>
<path style="fill:#b54342; stroke:none;" d="M57 65L57 102L47 102L47 103L56.9722 101.397L58 92L57 65M204 67L204 68L210 70L209 68L210 68L215 67L204 67M215 65L216 66L215 65z"/>
<path style="fill:#37283b; stroke:none;" d="M240 65L242 77L240 77L239 74L242 75C241.19 70.3729 238.164 70.547 234 70L238 76L236 81L231 85C240.02 83.4375 252.181 71.5965 240 65z"/>
<path style="fill:#b54342; stroke:none;" d="M242 65L243 66L242 65z"/>
<path style="fill:#e0854d; stroke:none;" d="M265 65L266 66L265 65z"/>
<path style="fill:#37283b; stroke:none;" d="M288 65L289 66L288 65M293 65L294 66L293 65z"/>
<path style="fill:#b54342; stroke:none;" d="M297 65L298 66L297 65M300 65L301 66L300 65M29 66L30 67L29 66M44 66L45 67L44 66z"/>
<path style="fill:#e0854d; stroke:none;" d="M201 66L202 67L201 66M208 66L209 67L208 66M236.667 66.3333L237.333 66.6667L236.667 66.3333M266 66L267 67L266 66M203 67L204 68L203 67z"/>
<path style="fill:#d8b6bf; stroke:none;" d="M214 67L215 68L214 67z"/>
<path style="fill:#e0854d; stroke:none;" d="M228 67L228 72L229 72L228 67M240 67L241 68L240 67z"/>
<path style="fill:#b54342; stroke:none;" d="M243 67C247.704 77.1635 238.612 79.056 234 86L242 85L237 99L238 99C240.713 89.515 246.153 83.1001 251 95L252 95L250 88L257 94L253 86L250 85L251 83L246 74L249 74L243 67z"/>
<path style="fill:#e0854d; stroke:none;" d="M267 67L268 68L267 67M277 67L277 78L271 77C271.951 73.6044 271.965 70.4043 268 70L270 72L268 75C265.35 74.5657 258.225 74.0036 261 78L255 84C258.225 86.6627 259.928 88.8109 259 93L254 86L253 86L257 94L250 88L252 95L251 95L250 90L245 90L256 108L261 101L262 101L262 103L263 103L259 95C264.944 96.0905 267.672 93.2443 270 88L267 84L270 87L272 87L274 82L276 82C278.034 88.3362 284.376 101.126 279 107L278 118L275 117L277 112L273 112L277 121L275 125L276 125L280 116L281 116L284 121L284 120L282 119L284 116L286 116L286 115L285 114L290 113L286 111L286 105L288 96L277 67z"/>
<path style="fill:#37283b; stroke:none;" d="M282 67L283 68L282 67z"/>
<path style="fill:#b54342; stroke:none;" d="M297 67L298 68L297 67M300 67L301 68L300 67M30 68L31 69L30 68z"/>
<path style="fill:#37283b; stroke:none;" d="M42 68L35 75L36 78L42 68z"/>
<path style="fill:#b54342; stroke:none;" d="M202 68L203 69L202 68z"/>
<path style="fill:#e0854d; stroke:none;" d="M209 68L211 70L209 68z"/>
<path style="fill:#37283b; stroke:none;" d="M210 68L211 69L210 68z"/>
<path style="fill:#d8b6bf; stroke:none;" d="M212 68L208 70L211 77C208.006 78.9581 208.006 81.0419 211 83L201 85L201 86L205 87L205 88L195 89L195 90C199.374 90 212.034 85.8623 211 90C215.747 88.6279 219.458 90.0815 221.411 95.0008C228.007 111.617 227.636 127.376 244 139C238.796 129.996 228.572 122.321 229 111L225 105L227 102L226 102L226 104L225 104L226 91L225 91L224 94L223 94L222 88C217.957 84.9258 215.515 80.6374 210 82L209 79L210 78L213 79L214 75L210 75L209 71L212 73L212 68z"/>
<path style="fill:#e0854d; stroke:none;" d="M268 68L269 69L268 68z"/>
<path style="fill:#37283b; stroke:none;" d="M286 68L287 69L286 68z"/>
<path style="fill:#b54342; stroke:none;" d="M293 68L294 69L293 68M42 69L43 70L42 69z"/>
<path style="fill:#37283b; stroke:none;" d="M198 69L191 76L194 77L194 78L191 79L191 80L201 81L200 84L206 83L206 82L203 82L203 81L204 79C206.718 77.9147 208.653 76.3397 206 74L206 73L209 69L198 69z"/>
<path style="fill:#d8b6bf; stroke:none;" d="M215 70L215 73L217 70L215 70z"/>
<path style="fill:#b54342; stroke:none;" d="M41 71L42 72L41 71z"/>
<path style="fill:#103e5c; stroke:none;" d="M207 71L208 72L207 71z"/>
<path style="fill:#b54342; stroke:none;" d="M209.333 71.6667L209.667 72.3333L209.333 71.6667z"/>
<path style="fill:#37283b; stroke:none;" d="M224 71L226 73L224 71z"/>
<path style="fill:#d8b6bf; stroke:none;" d="M230 71L231 72L230 71z"/>
<path style="fill:#b54342; stroke:none;" d="M207.333 72.6667L207.667 73.3333L207.333 72.6667z"/>
<path style="fill:#37283b; stroke:none;" d="M210 72L209 74L211 74L210 72z"/>
<path style="fill:#e0854d; stroke:none;" d="M231 72L232 73L231 72z"/>
<path style="fill:#37283b; stroke:none;" d="M233 72L235 77L236 77L233 72z"/>
<path style="fill:#b54342; stroke:none;" d="M239.667 72.3333L240.333 72.6667L239.667 72.3333z"/>
<path style="fill:#37283b; stroke:none;" d="M34.3333 73.6667L34.6667 74.3333L34.3333 73.6667z"/>
<path style="fill:#b54342; stroke:none;" d="M40 73L41 74L40 73z"/>
<path style="fill:#103e5c; stroke:none;" d="M206 73L207 74L206 73z"/>
<path style="fill:#d8b6bf; stroke:none;" d="M212 73L213 74L212 73z"/>
<path style="fill:#b54342; stroke:none;" d="M214 73L215 74L214 73z"/>
<path style="fill:#e0854d; stroke:none;" d="M229 73L229 75L231 75L229 73M246 74L248 78L249 78L248 73L246 74M272 73L273 74L272 73z"/>
<path style="fill:#b54342; stroke:none;" d="M39 74L40 75L39 74z"/>
<path style="fill:#e0854d; stroke:none;" d="M208 74L211 77L208 74z"/>
<path style="fill:#b54342; stroke:none;" d="M210 74L211 75L210 74z"/>
<path style="fill:#37283b; stroke:none;" d="M226 74L227 75L226 74z"/>
<path style="fill:#e0854d; stroke:none;" d="M233 74L234 75L233 74M251.333 74.6667L251.667 75.3333L251.333 74.6667z"/>
<path style="fill:#37283b; stroke:none;" d="M275 74L276 75L275 74z"/>
<path style="fill:#b54342; stroke:none;" d="M208 75L208 78L209 78L208 75z"/>
<path style="fill:#d8b6bf; stroke:none;" d="M230.333 75.6667L230.667 76.3333L230.333 75.6667z"/>
<path style="fill:#b54342; stroke:none;" d="M35 76L36 77L35 76M38 76L39 77L38 76z"/>
<path style="fill:#37283b; stroke:none;" d="M58 76L59 77L58 76M189 76L190 77L189 76z"/>
<path style="fill:#103e5c; stroke:none;" d="M195 76L195 78L197 76L195 76z"/>
<path style="fill:#37283b; stroke:none;" d="M225 76L225 80L226 80L225 76z"/>
<path style="fill:#e0854d; stroke:none;" d="M231 76L230 82L231 82L232 82L231 76z"/>
<path style="fill:#37283b; stroke:none;" d="M246 76L247 77L246 76z"/>
<path style="fill:#e0854d; stroke:none;" d="M255 76L256 77L255 76z"/>
<path style="fill:#d8b6bf; stroke:none;" d="M269 76L270 77L269 76z"/>
<path style="fill:#37283b; stroke:none;" d="M284 76L285 77L284 76M286 76L287 77L286 76z"/>
<path style="fill:#b54342; stroke:none;" d="M37 77L38 78L37 77z"/>
<path style="fill:#e0854d; stroke:none;" d="M233.333 77.6667L233.667 78.3333L233.333 77.6667z"/>
<path style="fill:#d8b6bf; stroke:none;" d="M262 77L263 78L262 77M267 77L268 78L267 77z"/>
<path style="fill:#b54342; stroke:none;" d="M36 78L37 79L36 78z"/>
<path style="fill:#37283b; stroke:none;" d="M84 78L85 79L84 78M110 78L111 79L110 78M112 78L113 79L112 78M140.667 78.3333L141.333 78.6667L140.667 78.3333z"/>
<path style="fill:#b54342; stroke:none;" d="M206 78L206 82L206 83L201 84L201 85L209 85L208 78L206 78M210 78L211 79L210 78z"/>
<path style="fill:#e0854d; stroke:none;" d="M245 78L241 82L247 84C246.884 80.7548 248.924 79.7311 245 78z"/>
<path style="fill:#d8b6bf; stroke:none;" d="M246 78L247 79L246 78z"/>
<path style="fill:#e0854d; stroke:none;" d="M249 78L251 83L249 78M255 78L256 79L255 78z"/>
<path style="fill:#37283b; stroke:none;" d="M58 79L58 83L59 83L58 79z"/>
<path style="fill:#d8b6bf; stroke:none;" d="M61 79L69 102L75 103L84 79C77.7104 79.0749 75.4724 81.2914 73 87C69.2703 81.8005 67.7426 79.0799 61 79z"/>
<path style="fill:#b54342; stroke:none;" d="M84 79L85 80L84 79z"/>
<path style="fill:#d8b6bf; stroke:none;" d="M85 79L85 85L92 85L93 103L98 103L99 85L106 85C105.284 75.8113 91.8951 79 85 79z"/>
<path style="fill:#e0854d; stroke:none;" d="M105 79L106 80L105 79z"/>
<path style="fill:#d8b6bf; stroke:none;" d="M108 79L108 102L115 102L115 94L123 94L123 103L130 102L129 79L123 79L123 88L115 88L115 79L108 79M145 97L134 95L132 100C137.344 102.494 156.167 105.35 151.242 93.1883C149.305 88.4043 142.46 88.2834 139 85C140.725 85.087 142.315 85.2866 144.021 85.5355C148.372 86.1704 152.42 82.2686 146.926 79.8935C140.509 77.1196 127.872 82.6728 134.603 90.5702C137.296 93.7295 142.072 93.8284 145 97z"/>
<path style="fill:#b54342; stroke:none;" d="M146 79L147 80L146 79z"/>
<path style="fill:#103e5c; stroke:none;" d="M204 79L205 80L204 79z"/>
<path style="fill:#e0854d; stroke:none;" d="M209 79L210 80L209 79z"/>
<path style="fill:#37283b; stroke:none;" d="M210.333 79.6667L210.667 80.3333L210.333 79.6667z"/>
<path style="fill:#d8b6bf; stroke:none;" d="M230 79L231 80L230 79M232 79L233 80L232 79z"/>
<path style="fill:#e0854d; stroke:none;" d="M234.333 79.6667L234.667 80.3333L234.333 79.6667z"/>
<path style="fill:#b54342; stroke:none;" d="M237 79L238 80L237 79z"/>
<path style="fill:#d8b6bf; stroke:none;" d="M244 79L245 80L244 79M276 79C280.346 91.848 283.367 102.269 281 116L282 116C286.812 105.673 284.618 86.8773 276 79z"/>
<path style="fill:#b54342; stroke:none;" d="M76 80L77 81L76 80z"/>
<path style="fill:#37283b; stroke:none;" d="M84 80L82 84C84.6489 83.4324 85.3548 82.4122 84 80M134 80L135 81L134 80M149 80L150 81L149 80z"/>
<path style="fill:#b54342; stroke:none;" d="M191 80L192 81L191 80z"/>
<path style="fill:#e0854d; stroke:none;" d="M207 80L208 81L207 80z"/>
<path style="fill:#b54342; stroke:none;" d="M211 80L212 81L211 80M213 80L214 81L213 80z"/>
<path style="fill:#d8b6bf; stroke:none;" d="M216 80L217 81L216 80M246 80L247 81L246 80z"/>
<path style="fill:#b54342; stroke:none;" d="M27 81L28 82L27 81M46 81L46 100L47 100L46 81z"/>
<path style="fill:#37283b; stroke:none;" d="M75 81L76 82L75 81M107 81L108 82L107 81z"/>
<path style="fill:#b54342; stroke:none;" d="M129 81L129 85L130 85L129 81z"/>
<path style="fill:#e0854d; stroke:none;" d="M150 81L151 82L150 81M192 81L194 83L192 81z"/>
<path style="fill:#b54342; stroke:none;" d="M193 81L194 82L193 81z"/>
<path style="fill:#103e5c; stroke:none;" d="M203 81L204 82L203 81z"/>
<path style="fill:#b54342; stroke:none;" d="M210 81L211 82L210 81z"/>
<path style="fill:#37283b; stroke:none;" d="M15 82L15 96L16 96L15 82M27 82L27 102L28 102L29 87L32 89L27 82M74 82L75 83L74 82z"/>
<path style="fill:#d8b6bf; stroke:none;" d="M194 82L194 83L200 85L200 84L194 82z"/>
<path style="fill:#37283b; stroke:none;" d="M240 82L241 83L240 82z"/>
<path style="fill:#e0854d; stroke:none;" d="M253 82L254 83L253 82z"/>
<path style="fill:#b54342; stroke:none;" d="M274 82L272 87L270 87L267 84L270 88C267.053 92.5946 264.745 95.4271 259 95L263 103L262 103L262 101L261 101L256 108L245 89L244 89L244 96L239 97C240.566 103.559 242.832 110.303 236 114L237 111C231.971 106.216 231.779 96.668 232 90L231 90C226.936 99.9744 228.053 106.361 232 116L229 114L238 130L244 135L242 134L242 135C248.2 139.771 251.616 144.67 260 144L260 143L253 143L253 142L265 139L268 129L271 130L271 119L272 119C272.446 121.23 276.568 127.142 272 126L273 129L274 129L277 121L273 112L277 112L275 117L278 118C279.765 114.169 281.648 110.701 279 107C285.07 103.701 278.167 86.6881 276 82L274 82z"/>
<path style="fill:#37283b; stroke:none;" d="M286 82L287 83L286 82M45 83L37 96C40.5069 93.0945 45.2572 87.7302 45 83M115 83L115 88L123 88L123 87L116 87L115 83z"/>
<path style="fill:#e0854d; stroke:none;" d="M195 83L196 84L195 83z"/>
<path style="fill:#b54342; stroke:none;" d="M198 83L199 84L198 83z"/>
<path style="fill:#103e5c; stroke:none;" d="M201 83L202 84L201 83z"/>
<path style="fill:#e0854d; stroke:none;" d="M208 83L208 86L211 83L208 83M225 83L225 85L227 83L225 83z"/>
<path style="fill:#37283b; stroke:none;" d="M241 83L242 84L241 83M248 83L249 84L248 83z"/>
<path style="fill:#e0854d; stroke:none;" d="M251 83L250 84L253 86L251 83z"/>
<path style="fill:#b54342; stroke:none;" d="M29 84L30 85L29 84M63 84L64 85L63 84z"/>
<path style="fill:#37283b; stroke:none;" d="M71 84L72 87L73 87L74 84L71 84z"/>
<path style="fill:#e0854d; stroke:none;" d="M81 84L82 85L81 84z"/>
<path style="fill:#37283b; stroke:none;" d="M150 84L151 85L150 84z"/>
<path style="fill:#b54342; stroke:none;" d="M195.667 84.3333L196.333 84.6667L195.667 84.3333z"/>
<path style="fill:#e0854d; stroke:none;" d="M197 84L198 85L197 84M200.333 84.6667L200.667 85.3333L200.333 84.6667z"/>
<path style="fill:#103e5c; stroke:none;" d="M202 84L203 85L202 84z"/>
<path style="fill:#37283b; stroke:none;" d="M203.667 84.3333L204.333 84.6667L203.667 84.3333M245.667 84.3333L246.333 84.6667L245.667 84.3333z"/>
<path style="fill:#e0854d; stroke:none;" d="M254 84L254 86L256 86L254 84z"/>
<path style="fill:#b54342; stroke:none;" d="M30 85L31 86L30 85M43 85L44 86L43 85z"/>
<path style="fill:#e0854d; stroke:none;" d="M71 85L72 86L71 85z"/>
<path style="fill:#103e5c; stroke:none;" d="M73 85L74 86L73 85z"/>
<path style="fill:#37283b; stroke:none;" d="M88 85L88 86L91 86L91 99L92 99L92 85L88 85M99 85L99 89L100 89L102 86L99 85z"/>
<path style="fill:#e0854d; stroke:none;" d="M129.333 85.6667L129.667 86.3333L129.333 85.6667M139.333 85.6667L139.667 86.3333L139.333 85.6667z"/>
<path style="fill:#37283b; stroke:none;" d="M140 85L143 88L140 85z"/>
<path style="fill:#103e5c; stroke:none;" d="M142 85L144 88L145 87L144 85L142 85z"/>
<path style="fill:#37283b; stroke:none;" d="M144 85L145 86L144 85z"/>
<path style="fill:#b54342; stroke:none;" d="M191.333 85.6667L191.667 86.3333L191.333 85.6667M198 85L196 89L203 87L198 85z"/>
<path style="fill:#e0854d; stroke:none;" d="M204 85L205 86L204 85M225 104L226 104L226 102L227 102L225 105L228 112L231 90L232 90C231.418 96.1272 231.342 107.437 237 111L236 113L236 114C243.705 111.291 240.902 103.374 239 97L244 96L245 86L244 86L238 99L237 99L242 85L235 85L232 88L234 86C226.73 84.9892 226.089 98.9238 225 104M243 85L244 86L243 85M275.333 85.6667L275.667 86.3333L275.333 85.6667z"/>
<path style="fill:#b54342; stroke:none;" d="M42 86L43 87L42 86z"/>
<path style="fill:#37283b; stroke:none;" d="M145.667 86.3333L146.333 86.6667L145.667 86.3333z"/>
<path style="fill:#e0854d; stroke:none;" d="M202 88L205 88L204 86L202 88z"/>
<path style="fill:#d8b6bf; stroke:none;" d="M232 88L236 87L232 88M245 86C245.496 89.034 245.874 90.0714 249 90L245 86z"/>
<path style="fill:#b54342; stroke:none;" d="M31 87L32 88L31 87z"/>
<path style="fill:#37283b; stroke:none;" d="M64 87L65 88L64 87z"/>
<path style="fill:#b54342; stroke:none;" d="M129 87L129 91L130 91L129 87z"/>
<path style="fill:#103e5c; stroke:none;" d="M141 87L142 88L141 87z"/>
<path style="fill:#37283b; stroke:none;" d="M144 87L145 88L144 87M228 87L229 88L228 87z"/>
<path style="fill:#b54342; stroke:none;" d="M236 87L237 88L236 87z"/>
<path style="fill:#e0854d; stroke:none;" d="M247 87L248 88L247 87M255 87L256 88L255 87M273 87L274 88L273 87z"/>
<path style="fill:#b54342; stroke:none;" d="M41 88L42 89L41 88z"/>
<path style="fill:#37283b; stroke:none;" d="M146.667 88.3333L147.333 88.6667L146.667 88.3333z"/>
<path style="fill:#b54342; stroke:none;" d="M193 88L192 89L195 91L193 88z"/>
<path style="fill:#e0854d; stroke:none;" d="M194 88L194 90L196 88L194 88M197.667 88.3333L198.333 88.6667L197.667 88.3333M205 88L205 89L208 89L205 88M211 88L212 89L211 88M216 88L220 93L221 100L222 100C221.934 94.4164 220.581 91.3351 216 88z"/>
<path style="fill:#d8b6bf; stroke:none;" d="M231 88L232 89L231 88z"/>
<path style="fill:#e0854d; stroke:none;" d="M248 88L249 89L248 88M257.667 88.3333L258.333 88.6667L257.667 88.3333z"/>
<path style="fill:#37283b; stroke:none;" d="M32 89L34 92L32 89z"/>
<path style="fill:#b54342; stroke:none;" d="M40 89L41 90L40 89M78 89L79 90L78 89z"/>
<path style="fill:#e0854d; stroke:none;" d="M200.667 89.3333L201.333 89.6667L200.667 89.3333z"/>
<path style="fill:#37283b; stroke:none;" d="M203.667 89.3333L204.333 89.6667L203.667 89.3333z"/>
<path style="fill:#e0854d; stroke:none;" d="M210 89L209 91L211 91L210 89M214 89L215 90L214 89z"/>
<path style="fill:#b54342; stroke:none;" d="M33 90L34 91L33 90z"/>
<path style="fill:#37283b; stroke:none;" d="M45 90L45 100L46 100L45 90z"/>
<path style="fill:#b54342; stroke:none;" d="M149 90L150 91L149 90M187.667 90.3333L188.333 90.6667L187.667 90.3333z"/>
<path style="fill:#e0854d; stroke:none;" d="M189 90L190 91L189 90z"/>
<path style="fill:#d8b6bf; stroke:none;" d="M190 90L190 91L193 91L190 90z"/>
<path style="fill:#e0854d; stroke:none;" d="M193 90L194 91L193 90M195.667 90.3333L196.333 90.6667L195.667 90.3333z"/>
<path style="fill:#103e5c; stroke:none;" d="M198 90L198 91L200 93L201 93L198 90z"/>
<path style="fill:#37283b; stroke:none;" d="M207 90L208 91L207 90M207 98C214.931 100.914 213.103 112.906 214 120L213 120L206 103L205 103L205 118L204 118L201 111L203 105C199.051 100.786 203.508 92.8294 194 98L194 99L199 100L196 101L196 102L200 102L200 103L192 103L189 112L192 112L194 115L184 123L180 123L177 134L173 133L174 135L171 134L172 139L170 138L170 139L174 144L167 140L169 144L164 143L160 150L158 151L155 150L146 162L190 162L214 161L212 159L224 154L227 152L227 149L224 149L225 146C214.933 144.961 231.815 139.657 233 139L233 138L230 139L233 136L222.981 116.866L218.556 102.005L213 92L214 90L207 98z"/>
<path style="fill:#e0854d; stroke:none;" d="M225 90L227 92L227 90L225 90z"/>
<path style="fill:#b54342; stroke:none;" d="M234 90L235 91L234 90z"/>
<path style="fill:#e0854d; stroke:none;" d="M259 90L260 91L259 90z"/>
<path style="fill:#b54342; stroke:none;" d="M39 91L40 92L39 91z"/>
<path style="fill:#37283b; stroke:none;" d="M134 91L135 92L134 91M151 91L152 92L151 91M200 94L207 93C204.072 91.6235 202.086 91.4238 200 94z"/>
<path style="fill:#d8b6bf; stroke:none;" d="M209 91L210 92L209 91z"/>
<path style="fill:#e0854d; stroke:none;" d="M222 91L223 92L222 91M224 91L225 92L224 91z"/>
<path style="fill:#37283b; stroke:none;" d="M34.3333 92.6667L34.6667 93.3333L34.3333 92.6667M67 92L68 98L69 98L67 92z"/>
<path style="fill:#e0854d; stroke:none;" d="M68 92L69 93L68 92z"/>
<path style="fill:#37283b; stroke:none;" d="M107 92L107 97L108 97L107 92z"/>
<path style="fill:#e0854d; stroke:none;" d="M129 92L130 93L129 92z"/>
<path style="fill:#37283b; stroke:none;" d="M135 92L137 94L135 92z"/>
<path style="fill:#103e5c; stroke:none;" d="M136 92L137 93L136 92z"/>
<path style="fill:#e0854d; stroke:none;" d="M208 92L209 93L208 92z"/>
<path style="fill:#d8b6bf; stroke:none;" d="M248 92L249 93L248 92M252 92L257 96L252 92M265.667 92.3333L266.333 92.6667L265.667 92.3333z"/>
<path style="fill:#b54342; stroke:none;" d="M35 93L36 94L35 93z"/>
<path style="fill:#37283b; stroke:none;" d="M58 93L58 98L59 98L58 93M76 93L76 98L77 98L76 93M99 93L99 96L100 96L99 93z"/>
<path style="fill:#b54342; stroke:none;" d="M129 93L129 96L130 96L129 93z"/>
<path style="fill:#e0854d; stroke:none;" d="M140 93L141 94L140 93M207 93L208 96L207 93z"/>
<path style="fill:#b54342; stroke:none;" d="M214 93L215 94L214 93z"/>
<path style="fill:#e0854d; stroke:none;" d="M218 93L219 94L218 93M223 93L224 94L223 93M270 93L263 98C264.87 103.637 268.592 108.457 274 111L274 96L270 98L270 93z"/>
<path style="fill:#b54342; stroke:none;" d="M37 94L38 95L37 94z"/>
<path style="fill:#37283b; stroke:none;" d="M115 94L115 98L116 98L115 94M202.667 94.3333L203.333 94.6667L202.667 94.3333z"/>
<path style="fill:#e0854d; stroke:none;" d="M225 94L226 95L225 94z"/>
<path style="fill:#b54342; stroke:none;" d="M233 94L234 95L233 94z"/>
<path style="fill:#d8b6bf; stroke:none;" d="M235 94L234 96L236 96L235 94z"/>
<path style="fill:#37283b; stroke:none;" d="M144 95L140 96L140 97L144 95z"/>
<path style="fill:#e0854d; stroke:none;" d="M200 95L201 96L200 95z"/>
<path style="fill:#d8b6bf; stroke:none;" d="M249 95L250 96L249 95z"/>
<path style="fill:#b54342; stroke:none;" d="M257 95L258 96L257 95z"/>
<path style="fill:#e0854d; stroke:none;" d="M288 95L289 96L288 95M291 95L292 96L291 95M294 95L295 96L294 95M133 96L134 97L133 96M201 96L202 97L201 96z"/>
<path style="fill:#d8b6bf; stroke:none;" d="M206 96L207 97L206 96z"/>
<path style="fill:#e0854d; stroke:none;" d="M224.333 96.6667L224.667 97.3333L224.333 96.6667z"/>
<path style="fill:#b54342; stroke:none;" d="M252 96L253 97L252 96z"/>
<path style="fill:#e0854d; stroke:none;" d="M129.333 97.6667L129.667 98.3333L129.333 97.6667M202 97L203 98L202 97M203 98L204 112L205 112L205 97L203 98z"/>
<path style="fill:#b54342; stroke:none;" d="M213 97L214 98L213 97z"/>
<path style="fill:#d8b6bf; stroke:none;" d="M257 97L259 100L257 97z"/>
<path style="fill:#b54342; stroke:none;" d="M258 97L259 100L260 100L258 97z"/>
<path style="fill:#e0854d; stroke:none;" d="M310 97L311 98L310 97z"/>
<path style="fill:#37283b; stroke:none;" d="M130 98L131 99L130 98M206 98L207 99L206 98z"/>
<path style="fill:#d8b6bf; stroke:none;" d="M226 98L226 101L227 101L226 98z"/>
<path style="fill:#b54342; stroke:none;" d="M253 98L254 99L253 98z"/>
<path style="fill:#e0854d; stroke:none;" d="M258 98L259 99L258 98z"/>
<path style="fill:#37283b; stroke:none;" d="M15.3333 99.6667L15.6667 100.333L15.3333 99.6667M58 99L58 102L59 102L58 99M68.3333 99.6667L68.6667 100.333L68.3333 99.6667z"/>
<path style="fill:#d8b6bf; stroke:none;" d="M203 99L204 102L205 102L205 99L203 99z"/>
<path style="fill:#e0854d; stroke:none;" d="M297 99L298 100L297 99M304.667 99.3333L305.333 99.6667L304.667 99.3333M307 100L307 101L311 102C310.395 99.2325 309.711 99.4234 307 100z"/>
<path style="fill:#37283b; stroke:none;" d="M46 100L49 104L49 103L46 100M76 100L77 101L76 100M91 100L92 101L91 100M130 100L131 101L130 100M132 100L133 101L132 100z"/>
<path style="fill:#e0854d; stroke:none;" d="M133 100L134 101L133 100M222 100L223 107L224 107L222 100z"/>
<path style="fill:#b54342; stroke:none;" d="M260 100L261 101L260 100z"/>
<path style="fill:#37283b; stroke:none;" d="M134 101L135 102L134 101M16 102L17 103L16 102M18 102L21 104L21 103L18 102z"/>
<path style="fill:#b54342; stroke:none;" d="M19 102L19 103L22 103L19 102z"/>
<path style="fill:#37283b; stroke:none;" d="M22 102L23 103L22 102z"/>
<path style="fill:#b54342; stroke:none;" d="M23 102L23 103L26 103L23 102z"/>
<path style="fill:#37283b; stroke:none;" d="M26 102L27 103L26 102M57 102L58 103L57 102z"/>
<path style="fill:#e0854d; stroke:none;" d="M70 102L70 103L74 103L70 102M92 102L93 103L92 102M94.6667 102.333L95.3333 102.667L94.6667 102.333M109 102L109 103L114 103L109 102M124 102L125 103L124 102M126 102L127 103L126 102z"/>
<path style="fill:#37283b; stroke:none;" d="M136 102L137 103L136 102z"/>
<path style="fill:#e0854d; stroke:none;" d="M146 102L147 103L146 102z"/>
<path style="fill:#b54342; stroke:none;" d="M198.667 102.333L199.333 102.667L198.667 102.333z"/>
<path style="fill:#e0854d; stroke:none;" d="M207 102L208 103L207 102z"/>
<path style="fill:#b54342; stroke:none;" d="M256 102L258 104L256 102z"/>
<path style="fill:#37283b; stroke:none;" d="M24.6667 103.333L25.3333 103.667L24.6667 103.333M52 103L52 104L57 104L52 103M142 103L143 104L142 103z"/>
<path style="fill:#e0854d; stroke:none;" d="M206 103L207 104L206 103z"/>
<path style="fill:#37283b; stroke:none;" d="M188 104L188 111C190.695 108.349 190.791 106.596 188 104z"/>
<path style="fill:#103e5c; stroke:none;" d="M194 105L194 106L198 108L198 104L194 105z"/>
<path style="fill:#e0854d; stroke:none;" d="M207 104L209 109L210 109L207 104z"/>
<path style="fill:#b54342; stroke:none;" d="M197 106L197 107L200 108L200 105L197 106z"/>
<path style="fill:#e0854d; stroke:none;" d="M309.667 105.333L310.333 105.667L309.667 105.333z"/>
<path style="fill:#103e5c; stroke:none;" d="M189 106L188 110L189 110L189 106z"/>
<path style="fill:#e0854d; stroke:none;" d="M263 106L264 122L265 122L266 119L267 119L268 122L272 117L269 116L265 106L263 106M307 106L308 107L307 106z"/>
<path style="fill:#d8b6bf; stroke:none;" d="M264 107L265 108L264 107z"/>
<path style="fill:#e0854d; stroke:none;" d="M309.667 107.333L310.333 107.667L309.667 107.333M258 116L262 108L258 116M288 108L289 109L288 108M308 108L309 109L308 108M210 109L211 110L210 109M224 109L225 110L224 109M300 111L300 112L301 114C304.579 113.143 310.178 112.838 311 109L300 111M287.667 110.333L288.333 110.667L287.667 110.333M229 111L228 115L232 116L229 111M297 111L298 112L297 111M211 112L212 113L211 112M225 112L226 113L225 112z"/>
<path style="fill:#b54342; stroke:none;" d="M228 112L229 113L228 112z"/>
<path style="fill:#e0854d; stroke:none;" d="M294.667 112.333L295.333 112.667L294.667 112.333M305.667 113.333L306.333 113.667L305.667 113.333M307 115L311 117L311 113L307 115z"/>
<path style="fill:#37283b; stroke:none;" d="M186 115L189 118L190 114L186 115z"/>
<path style="fill:#e0854d; stroke:none;" d="M212.333 114.667L212.667 115.333L212.333 114.667z"/>
<path style="fill:#b54342; stroke:none;" d="M267 114L268 115L267 114z"/>
<path style="fill:#e0854d; stroke:none;" d="M298.667 114.333L299.333 114.667L298.667 114.333M303 114L305 116L303 114z"/>
<path style="fill:#37283b; stroke:none;" d="M184 115L185 116L184 115z"/>
<path style="fill:#103e5c; stroke:none;" d="M187 115L189 117L187 115z"/>
<path style="fill:#b54342; stroke:none;" d="M191 115L192 116L191 115M193 115L194 116L193 115z"/>
<path style="fill:#e0854d; stroke:none;" d="M229 115L230 116L229 115M301 115L302 116L301 115z"/>
<path style="fill:#b54342; stroke:none;" d="M190 116L191 117L190 116M192 116L193 117L192 116M212.667 116.333L213.333 116.667L212.667 116.333z"/>
<path style="fill:#d8b6bf; stroke:none;" d="M280 116L276 127L277 127C280.7 120.411 287.464 122.996 294 123L294 122C287.647 121.982 283.675 121.511 280 116z"/>
<path style="fill:#e0854d; stroke:none;" d="M294 116L295 117L294 116M213.333 117.667L213.667 118.333L213.333 117.667M230 117L231 120L230 117M261.333 117.667L261.667 118.333L261.333 117.667z"/>
<path style="fill:#b54342; stroke:none;" d="M264 117L265 118L264 117z"/>
<path style="fill:#e0854d; stroke:none;" d="M296 117L297 118L296 117M227 118L228 119L227 118z"/>
<path style="fill:#37283b; stroke:none;" d="M310 118L311 119L310 118z"/>
<path style="fill:#b54342; stroke:none;" d="M213 119L214 120L213 119z"/>
<path style="fill:#e0854d; stroke:none;" d="M232 119L239 125L232 119M271 119L271 130L268 129L265 139L253 142L253 143L260 143L260 144C251.642 144.283 248.818 138.592 242 135L244 139L242 139L255 150L256 150L246 141C257.886 148.081 262.476 143.325 272 135L264 146L278 132L279 123L278 123L277 127L274 129L273 129L272 126C275.875 125.358 272.964 120.724 271 119z"/>
<path style="fill:#b54342; stroke:none;" d="M276 119L277 120L276 119z"/>
<path style="fill:#37283b; stroke:none;" d="M308 119L309 120L308 119z"/>
<path style="fill:#b54342; stroke:none;" d="M214 120L215 121L214 120z"/>
<path style="fill:#e0854d; stroke:none;" d="M228.333 120.667L228.667 121.333L228.333 120.667M231 120L232 121L231 120z"/>
<path style="fill:#37283b; stroke:none;" d="M295 120L296 121L295 120z"/>
<path style="fill:#e0854d; stroke:none;" d="M301.667 120.333L302.333 120.667L301.667 120.333z"/>
<path style="fill:#37283b; stroke:none;" d="M180 121L179 123L180 121z"/>
<path style="fill:#e0854d; stroke:none;" d="M214.333 121.667L214.667 122.333L214.333 121.667M232.333 121.667L232.667 122.333L232.333 121.667M285 121L285 122L298 122L285 121z"/>
<path style="fill:#d8b6bf; stroke:none;" d="M298 121L299 122L298 121z"/>
<path style="fill:#e0854d; stroke:none;" d="M299 121L300 122L299 121M229 122L230 123L229 122M279 122L279 123L285 123L279 122z"/>
<path style="fill:#37283b; stroke:none;" d="M301 122L302 123L301 122z"/>
<path style="fill:#b54342; stroke:none;" d="M214 123L215 127L216 127L214 123z"/>
<path style="fill:#e0854d; stroke:none;" d="M233.333 123.667L233.667 124.333L233.333 123.667M267.333 123.667L267.667 124.333L267.333 123.667z"/>
<path style="fill:#37283b; stroke:none;" d="M285 123L285 125L287 125L287 123L285 123M288 123L288 124L295 124L288 123z"/>
<path style="fill:#e0854d; stroke:none;" d="M231.333 124.667L231.667 125.333L231.333 124.667z"/>
<path style="fill:#b54342; stroke:none;" d="M272 124L273 125L272 124z"/>
<path style="fill:#37283b; stroke:none;" d="M295.667 124.333L296.333 124.667L295.667 124.333M300 124L301 125L300 124M179 125L180 126L179 125z"/>
<path style="fill:#e0854d; stroke:none;" d="M234 125C235.88 129.852 238.839 133.599 244 135L238 130L234 125z"/>
<path style="fill:#37283b; stroke:none;" d="M288 125L288 128L291 127L291 126L288 125M292 125L293 126L292 125M303 125L304 126L303 125z"/>
<path style="fill:#b54342; stroke:none;" d="M204 126L202 129L203 130L204 126z"/>
<path style="fill:#e0854d; stroke:none;" d="M232 126L233 127L232 126M239 126L240 127L239 126M268 126L269 127L268 126z"/>
<path style="fill:#37283b; stroke:none;" d="M286 126L287 127L286 126M294 126L295 127L294 126M307 126L306 127L307 130L311 127L307 126z"/>
<path style="fill:#b54342; stroke:none;" d="M216 127L216 130L217 130L216 127z"/>
<path style="fill:#e0854d; stroke:none;" d="M233 127L234 128L233 127z"/>
<path style="fill:#37283b; stroke:none;" d="M284 127L285 128L284 127z"/>
<path style="fill:#e0854d; stroke:none;" d="M241 128L244 130L244 129L241 128M234 129L235 130L234 129z"/>
<path style="fill:#d8b6bf; stroke:none;" d="M274 129L272 135L273 135L274 129z"/>
<path style="fill:#37283b; stroke:none;" d="M174 131L174 132L177 133L177 132C175.04 131.347 174.446 131 177 131L174 131z"/>
<path style="fill:#e0854d; stroke:none;" d="M235 130L236 131L235 130z"/>
<path style="fill:#37283b; stroke:none;" d="M295 130L296 131L295 130M170 131L171 132L170 131z"/>
<path style="fill:#103e5c; stroke:none;" d="M179 131L180 132L179 131z"/>
<path style="fill:#b54342; stroke:none;" d="M206 131L205 135L209 134L209 133L207 134L209 132L206 131z"/>
<path style="fill:#e0854d; stroke:none;" d="M236.333 131.667L236.667 132.333L236.333 131.667z"/>
<path style="fill:#b54342; stroke:none;" d="M272 131L273 132L272 131z"/>
<path style="fill:#37283b; stroke:none;" d="M172 132L173 133L172 132z"/>
<path style="fill:#e0854d; stroke:none;" d="M265.333 132.667L265.667 133.333L265.333 132.667z"/>
<path style="fill:#37283b; stroke:none;" d="M285 132L286 133L285 132M169 133L170 134L169 133z"/>
<path style="fill:#e0854d; stroke:none;" d="M237 133L238 134L237 133M246 133L246 135L248 135L246 133M263 133L264 134L263 133M238 134L239 135L238 134M239 135L242 138L239 135M264 135L265 136L264 135z"/>
<path style="fill:#d8b6bf; stroke:none;" d="M271 135C260.987 143.771 258.457 146.134 246 141C252.641 149.918 271.341 148.601 271 135z"/>
<path style="fill:#37283b; stroke:none;" d="M170 136L171 137L170 136z"/>
<path style="fill:#103e5c; stroke:none;" d="M174 136L173 138L174 136z"/>
<path style="fill:#b54342; stroke:none;" d="M217 136L217 140L221 140L219 136L220 138L217 136M166 138L167 139L166 138M224.667 138.333L225.333 138.667L224.667 138.333M228 138L229 139L228 138z"/>
<path style="fill:#e0854d; stroke:none;" d="M250 138L251 141L254 138L253 138L254 140L253 140L250 138z"/>
<path style="fill:#37283b; stroke:none;" d="M165 139L166 140L165 139z"/>
<path style="fill:#b54342; stroke:none;" d="M167 139L168 140L167 139M204.333 139.667L204.667 140.333L204.333 139.667z"/>
<path style="fill:#e0854d; stroke:none;" d="M169 140L170 141L169 140z"/>
<path style="fill:#d8b6bf; stroke:none;" d="M245 140L246 141L245 140z"/>
<path style="fill:#b54342; stroke:none;" d="M170.667 141.333L171.333 141.667L170.667 141.333z"/>
<path style="fill:#37283b; stroke:none;" d="M232 141L233 142L232 141M166 142L167 143L166 142z"/>
<path style="fill:#103e5c; stroke:none;" d="M171 142L172 143L171 142z"/>
<path style="fill:#e0854d; stroke:none;" d="M172 142L173 143L172 142z"/>
<path style="fill:#103e5c; stroke:none;" d="M173.333 142.667L173.667 143.333L173.333 142.667z"/>
<path style="fill:#b54342; stroke:none;" d="M199 142L200 143L199 142M193 143L194 144L193 143M203 143L201 148L202 148L203 143M195 144L194 146L195 144M198 144L198 145L201 145L201 144L198 144M191 145L192 146L191 145z"/>
<path style="fill:#37283b; stroke:none;" d="M226 145L226 148L227 148L226 145z"/>
<path style="fill:#b54342; stroke:none;" d="M196 146L197 147L196 146z"/>
<path style="fill:#37283b; stroke:none;" d="M237.333 146.667L237.667 147.333L237.333 146.667z"/>
<path style="fill:#e0854d; stroke:none;" d="M262 146L263 147L262 146z"/>
<path style="fill:#b54342; stroke:none;" d="M194 147L193 149L194 147M198 147L195 149L195 150L199 148L198 147z"/>
<path style="fill:#e0854d; stroke:none;" d="M257 148L257 149L262 148L257 148z"/>
<path style="fill:#37283b; stroke:none;" d="M231 148L232 149L231 148z"/>
<path style="fill:#b54342; stroke:none;" d="M185 149L185 150L188 150L185 149M199 149L200 150L199 149M197 150L198 151L197 150z"/>
<path style="fill:#37283b; stroke:none;" d="M216 157L216 162L218 162L216 157z"/>
</svg>
